<svg width="58" height="59" viewBox="0 0 58 59" fill="none" xmlns="http://www.w3.org/2000/svg">
<path d="M51.8377 6.2454C43.6342 -2.0818 30.2865 -2.0818 22.0832 6.2454C18.1091 10.2792 15.9208 15.6426 15.9208 21.3473C15.9208 26.5441 17.7377 31.457 21.0652 35.3404L18.5595 37.8838L16.006 35.2917C15.7262 35.0077 15.3466 34.8481 14.9509 34.8481C14.5552 34.8481 14.1756 35.0077 13.8958 35.2917L1.93201 47.4362C0.686145 48.7006 0 50.3819 0 52.1704C0 53.9587 0.686144 55.6401 1.93179 56.9045C3.17765 58.1692 4.83394 58.8656 6.59557 58.8656C8.35721 58.8656 10.0137 58.1691 11.2594 56.9047L23.2232 44.7604C23.503 44.4764 23.6603 44.0911 23.6603 43.6894C23.6603 43.2877 23.503 42.9024 23.2232 42.6184L20.6696 40.0262L23.1761 37.482C27.1175 40.9564 32.0385 42.6946 36.9604 42.6946C42.3482 42.6946 47.736 40.6128 51.8377 36.4493C55.8114 32.4154 58 27.0523 58 21.3475C58 15.6425 55.8116 10.2792 51.8377 6.2454ZM9.14916 54.7625C8.46709 55.4548 7.56028 55.8362 6.59557 55.8362C5.63098 55.8362 4.72405 55.4547 4.04199 54.7624C3.36004 54.0701 2.98428 53.1495 2.98428 52.1705C2.98428 51.1914 3.36004 50.2707 4.0421 49.5783L10.7182 42.8014L15.8254 47.9855L9.14916 54.7625ZM17.9358 45.8433L12.8286 40.659L14.9509 38.5048L20.058 43.6892L17.9358 45.8433ZM49.7274 34.307C42.6877 41.4533 31.2332 41.4533 24.1935 34.307C20.7833 30.8454 18.9052 26.2429 18.9052 21.3473C18.9052 16.4517 20.7833 11.8493 24.1935 8.38769C27.7134 4.81468 32.3369 3.02806 36.9605 3.02806C41.584 3.02806 46.2076 4.81445 49.7275 8.38769C53.1377 11.8493 55.0158 16.4518 55.0158 21.3473C55.0158 26.2428 53.1376 30.8454 49.7274 34.307Z" fill="white"/>
<path d="M47.2648 10.8871C41.5828 5.11964 32.3378 5.11941 26.6559 10.8871C20.9741 16.6549 20.9741 26.0394 26.656 31.8071C29.497 34.6908 33.2286 36.1328 36.9604 36.1328C40.6922 36.1328 44.4239 34.6908 47.2649 31.8071V31.807C52.9466 26.0395 52.9466 16.6549 47.2648 10.8871ZM45.1545 29.6651C40.6361 34.2516 33.2845 34.2516 28.7662 29.6652C24.2479 25.0787 24.2479 17.616 28.7661 13.0294C31.0255 10.7358 33.9924 9.58958 36.9604 9.58958C39.9276 9.58958 42.8956 10.7365 45.1545 13.0294C49.6728 17.6159 49.6728 25.0785 45.1545 29.6651Z" fill="white"/>
<path d="M42.5168 15.707C39.4528 12.5971 34.4679 12.5971 31.4039 15.707C30.8212 16.2985 30.8212 17.2575 31.4039 17.8493C31.9867 18.4408 32.9314 18.4408 33.5144 17.8493C35.4143 15.9204 38.5064 15.9204 40.4066 17.8493C40.6981 18.1452 41.0799 18.2929 41.4617 18.2929C41.8436 18.2929 42.2256 18.145 42.5168 17.8493C43.0996 17.2578 43.0996 16.2986 42.5168 15.707Z" fill="white"/>
</svg>
