<svg width="48" height="61" viewBox="0 0 48 61" fill="none" xmlns="http://www.w3.org/2000/svg">
<path d="M24 0C10.7662 0 0 10.2083 0 22.7562C0 41.4517 21.6111 59.7063 22.5314 60.4744C22.951 60.8246 23.4754 61 24 61C24.5246 61 25.049 60.8248 25.4688 60.4744C26.3887 59.7065 48 41.4519 48 22.7562C48 10.2083 37.2338 0 24 0ZM24 56.0066C19.222 51.6184 4.44448 36.8997 4.44448 22.7562C4.44448 12.5312 13.2171 4.21248 24 4.21248C34.7829 4.21248 43.5555 12.5312 43.5555 22.7562C43.5555 36.8995 28.778 51.6181 24 56.0066Z" fill="white"/>
<path d="M24 12.1554C17.8733 12.1554 12.889 16.9109 12.889 22.7562C12.889 28.6017 17.8733 33.357 24 33.357C30.1267 33.357 35.111 28.6017 35.111 22.7562C35.111 16.9109 30.1267 12.1554 24 12.1554ZM24 29.1446C20.3239 29.1446 17.3333 26.2788 17.3333 22.7562C17.3333 19.2338 20.3239 16.3679 24 16.3679C27.6761 16.3679 30.6667 19.2336 30.6667 22.7562C30.6667 26.2788 27.6761 29.1446 24 29.1446Z" fill="white"/>
</svg>
